<?xml version="1.0" standalone="no"?>
<!DOCTYPE svg PUBLIC "-//W3C//DTD SVG 20010904//EN"
 "http://www.w3.org/TR/2001/REC-SVG-20010904/DTD/svg10.dtd">
<svg version="1.0" xmlns="http://www.w3.org/2000/svg"
 width="980.000000pt" height="894.000000pt" viewBox="0 0 980.000000 894.000000"
 preserveAspectRatio="xMidYMid meet">

<g transform="translate(0.000000,894.000000) scale(0.100000,-0.100000)"
fill="#000000" stroke="none">
<path d="M0 7989 c0 -673 3 -948 11 -944 6 4 8 22 4 46 -5 27 -3 39 5 39 8 0
9 10 5 30 -4 20 -3 30 5 30 8 0 9 10 5 30 -4 19 -3 30 4 30 7 0 9 10 5 25 -3
14 -2 25 4 25 6 0 8 9 5 20 -3 11 -1 20 5 20 6 0 8 9 5 20 -3 11 0 20 6 20 5
0 8 7 5 15 -4 8 -1 15 6 15 7 0 9 8 5 20 -4 11 -2 20 4 20 6 0 8 7 5 15 -4 8
-1 15 5 15 6 0 8 7 5 15 -4 8 -1 15 5 15 6 0 8 7 4 17 -5 12 -3 14 7 8 10 -6
12 -4 7 8 -3 10 -2 17 3 17 5 0 7 7 4 15 -4 8 -1 15 5 15 6 0 8 7 4 17 -4 11
-3 14 5 9 8 -5 10 -2 6 8 -3 9 -1 16 6 16 6 0 8 5 5 10 -3 6 -1 10 5 10 6 0 8
5 5 10 -3 6 -1 10 5 10 6 0 9 4 6 9 -9 14 5 42 17 34 5 -3 7 -1 3 5 -8 13 14
63 25 56 5 -3 6 2 3 10 -4 9 1 18 10 22 9 3 13 10 10 15 -3 5 0 9 6 9 6 0 9 4
5 10 -3 5 3 18 15 30 11 11 17 20 13 20 -4 0 2 7 13 16 10 8 12 13 4 9 -8 -4
-4 3 10 15 14 12 18 19 10 15 -8 -4 -4 3 10 15 14 12 18 19 10 15 -8 -4 -4 3
10 15 14 12 18 19 10 15 -8 -4 -4 3 10 15 14 12 18 19 10 15 -8 -4 -1 6 15 22
17 15 24 24 15 19 -8 -4 3 9 25 29 22 21 31 32 20 25 -11 -7 5 10 35 38 30 28
51 51 45 52 -5 0 28 38 74 84 47 47 88 83 92 80 4 -2 22 14 40 36 34 42 108
104 95 79 -5 -8 4 0 19 16 14 17 23 23 20 15 -4 -8 3 -3 16 11 27 29 78 66 99
71 7 2 22 11 32 21 10 10 23 15 27 12 5 -2 12 2 15 11 4 9 13 14 22 10 8 -3
12 -2 9 4 -6 9 8 14 28 11 4 0 7 4 7 10 0 5 5 7 10 4 6 -3 10 -1 10 5 0 6 5 8
10 5 5 -3 10 -1 10 5 0 6 5 8 10 5 5 -3 10 -1 10 5 0 6 5 8 10 5 5 -3 10 -1
10 5 0 6 5 8 10 5 6 -3 10 -1 10 5 0 7 7 9 16 6 10 -4 13 -2 8 6 -5 8 -2 9 9
5 10 -3 17 -2 17 4 0 6 5 7 10 4 6 -3 10 -1 10 5 0 7 7 10 15 6 8 -3 15 -1 15
5 0 6 5 7 10 4 6 -3 10 -1 10 5 0 7 7 10 15 6 8 -3 15 -1 15 4 0 5 7 7 15 4 8
-4 15 -1 15 5 0 6 7 8 17 4 11 -5 14 -3 8 6 -6 10 -2 11 15 6 16 -5 20 -4 15
5 -5 9 -2 10 14 5 13 -4 21 -2 21 5 0 7 7 10 15 6 8 -3 15 -1 15 5 0 6 9 8 20
4 12 -4 20 -2 20 5 0 7 8 9 20 5 12 -4 20 -2 20 5 0 7 8 9 20 5 12 -4 20 -2
20 5 0 8 9 10 25 6 16 -4 25 -2 25 5 0 7 9 9 24 5 14 -3 28 -1 31 5 4 6 19 7
36 4 19 -4 29 -3 29 5 0 8 12 10 39 5 24 -4 42 -2 46 4 4 8 -274 11 -954 11
l-961 0 0 -951z m750 448 c0 -2 -10 -12 -22 -23 l-23 -19 19 23 c18 21 26 27
26 19z m-210 -210 c0 -2 -12 -14 -27 -28 l-28 -24 24 28 c23 25 31 32 31 24z"/>
<path d="M2038 8933 c23 -2 61 -2 85 0 23 2 4 4 -43 4 -47 0 -66 -2 -42 -4z"/>
<path d="M2245 8929 c5 -7 25 -8 56 -4 35 5 49 4 49 -5 0 -8 11 -10 34 -6 21
4 37 2 41 -4 4 -7 19 -9 36 -5 18 4 29 3 29 -4 0 -7 10 -9 25 -5 16 4 25 2 25
-5 0 -7 9 -9 25 -5 16 4 25 2 25 -6 0 -7 8 -9 20 -5 12 4 20 2 20 -5 0 -7 8
-9 20 -5 12 4 20 2 20 -5 0 -7 8 -9 20 -5 11 4 20 2 20 -4 0 -6 7 -8 15 -5 8
4 15 1 15 -6 0 -7 8 -9 20 -5 11 4 20 2 20 -4 0 -6 7 -8 15 -5 8 4 15 1 15 -5
0 -6 7 -8 17 -4 11 5 14 3 8 -6 -6 -10 -2 -11 15 -6 17 5 21 4 15 -6 -6 -9 -3
-11 8 -6 10 3 17 2 17 -3 0 -5 7 -6 17 -3 12 5 14 3 8 -7 -6 -10 -4 -12 8 -7
10 3 17 2 17 -4 0 -6 4 -8 9 -5 14 9 42 -5 34 -17 -4 -6 0 -8 10 -4 10 3 17 2
17 -4 0 -6 5 -7 10 -4 6 3 10 1 10 -5 0 -6 5 -8 10 -5 6 3 10 1 10 -5 0 -6 5
-8 10 -5 6 3 10 1 10 -5 0 -6 5 -8 10 -5 6 3 10 1 10 -4 0 -6 3 -10 8 -10 19
3 33 -2 27 -11 -3 -6 1 -7 9 -4 9 4 18 -1 22 -10 3 -9 10 -13 15 -11 4 3 17
-3 29 -15 11 -11 20 -17 20 -14 0 3 13 -3 29 -12 17 -10 27 -22 24 -27 -3 -6
-1 -7 6 -3 7 5 24 -6 43 -26 17 -18 28 -26 23 -18 -8 13 -6 13 11 1 10 -8 34
-30 53 -50 19 -20 28 -27 21 -16 -7 11 6 0 28 -25 22 -25 45 -45 50 -45 12 0
168 -158 165 -167 -2 -4 15 -22 37 -39 42 -34 104 -108 79 -95 -8 5 0 -4 16
-19 17 -14 23 -23 15 -20 -8 4 -4 -3 10 -15 14 -12 18 -19 10 -15 -8 4 -4 -3
10 -14 14 -11 21 -21 16 -21 -6 0 -1 -7 10 -15 10 -8 15 -15 10 -15 -6 0 -1
-7 10 -16 10 -8 12 -12 4 -8 -8 4 -2 -5 13 -19 15 -15 26 -31 23 -36 -3 -5 1
-12 10 -15 9 -4 14 -13 10 -22 -3 -8 -2 -12 4 -9 9 6 14 -8 11 -27 0 -5 4 -8
10 -8 5 0 7 -4 4 -10 -3 -5 -1 -10 5 -10 6 0 8 -4 5 -10 -3 -5 -1 -10 5 -10 6
0 8 -4 5 -10 -3 -5 -1 -10 5 -10 6 0 8 -4 5 -10 -3 -5 -1 -10 5 -10 6 0 8 -4
5 -10 -3 -5 -1 -10 5 -10 6 0 8 -4 5 -10 -3 -5 -1 -10 5 -10 7 0 9 -7 6 -16
-4 -10 -2 -13 6 -8 8 5 9 2 5 -9 -3 -10 -2 -17 4 -17 6 0 7 -4 4 -10 -3 -5 -1
-10 5 -10 7 0 10 -7 6 -15 -3 -8 -1 -15 5 -15 6 0 7 -4 4 -10 -3 -5 -1 -10 5
-10 7 0 10 -7 6 -15 -3 -8 -1 -15 4 -15 5 0 6 -7 3 -17 -5 -12 -3 -14 7 -8 10
6 12 4 7 -8 -4 -10 -2 -17 4 -17 6 0 8 -7 5 -16 -3 -9 -2 -12 5 -9 6 4 9 0 7
-10 -2 -11 4 -19 14 -20 11 -2 15 2 11 11 -3 8 0 14 6 14 6 0 8 7 4 17 -5 12
-3 14 7 8 10 -6 12 -4 7 8 -3 10 -2 17 3 17 5 0 7 7 4 15 -4 8 -1 15 6 15 6 0
8 5 5 10 -3 6 -2 10 4 10 6 0 8 7 5 15 -4 8 -1 15 6 15 6 0 8 5 5 10 -3 6 -2
10 4 10 6 0 7 7 4 17 -4 11 -3 14 5 9 8 -5 10 -2 6 8 -3 9 -1 16 6 16 6 0 8 5
5 10 -3 6 -1 10 5 10 6 0 8 5 5 10 -3 6 -1 10 5 10 6 0 9 4 6 9 -8 13 4 42 15
35 5 -3 6 3 2 12 -4 12 -3 15 5 10 8 -5 10 -1 5 10 -4 12 -3 15 5 10 8 -4 10
-2 6 8 -3 8 3 23 14 34 11 11 18 23 15 26 -4 3 -1 6 6 6 7 0 10 4 6 10 -3 5 2
18 12 28 10 10 19 25 21 33 2 8 13 22 25 32 12 10 15 16 7 12 -8 -4 -4 3 10
15 14 12 18 19 10 15 -8 -4 -4 3 10 15 14 12 18 19 10 15 -8 -4 -4 3 10 15 14
12 18 19 10 15 -8 -3 -1 6 15 20 17 15 23 24 15 20 -8 -4 -1 6 15 22 17 15 24
24 15 19 -8 -5 10 14 40 42 30 28 51 52 45 52 -5 0 26 36 70 79 43 44 82 78
85 76 4 -3 16 5 26 18 19 22 19 22 -2 7 -11 -8 -7 -3 10 12 16 15 33 25 36 23
4 -3 14 3 21 13 13 15 12 16 -3 3 -10 -7 -18 -11 -18 -8 0 2 17 17 38 33 20
15 33 21 27 13 -5 -8 3 -1 18 16 16 16 26 23 22 15 -4 -8 3 -4 15 10 12 14 19
18 15 10 -4 -8 3 -4 15 10 12 14 19 18 15 10 -4 -8 3 -4 15 10 12 14 18 18 14
10 -4 -8 7 0 25 18 19 19 40 31 48 28 8 -3 11 -1 8 4 -6 9 8 14 28 11 4 0 7 4
7 11 0 6 3 9 6 6 3 -4 15 3 26 14 11 11 26 17 34 14 10 -4 12 -2 8 6 -5 8 -2
9 10 5 11 -5 15 -3 10 5 -5 8 -2 9 10 5 9 -4 15 -3 12 2 -7 11 22 23 35 15 5
-3 9 0 9 6 0 6 5 8 10 5 6 -3 10 -1 10 5 0 7 7 9 16 6 10 -4 13 -2 8 6 -5 8
-2 9 9 5 10 -3 17 -2 17 3 0 5 7 6 17 3 12 -5 14 -3 8 7 -6 10 -4 12 8 7 10
-4 17 -2 17 4 0 6 7 9 15 5 8 -3 15 -1 15 4 0 5 7 7 15 4 8 -4 15 -1 15 5 0 6
7 8 15 5 8 -4 15 -1 15 5 0 6 7 8 15 5 8 -4 15 -1 15 6 0 7 7 10 15 6 8 -3 15
-1 15 5 0 6 9 8 20 4 12 -4 20 -2 20 5 0 7 7 10 15 6 8 -3 15 -1 15 5 0 7 10
9 25 5 15 -4 25 -2 25 4 0 7 8 9 20 5 12 -4 20 -2 20 5 0 8 9 10 24 6 14 -3
28 -1 31 5 4 6 18 8 30 5 13 -3 27 -1 31 5 4 6 20 8 39 5 20 -4 36 -2 40 4 5
7 26 9 60 5 34 -5 55 -3 59 4 5 8 -518 11 -1909 11 -1368 0 -1914 -3 -1910
-11z m1250 -499 c10 -11 16 -20 13 -20 -3 0 -13 9 -23 20 -10 11 -16 20 -13
20 3 0 13 -9 23 -20z m210 -210 c10 -11 16 -20 13 -20 -3 0 -13 9 -23 20 -10
11 -16 20 -13 20 3 0 13 -9 23 -20z m915 17 c0 -2 -10 -12 -22 -23 l-23 -19
19 23 c18 21 26 27 26 19z"/>
<path d="M6296 8929 c4 -8 26 -9 64 -5 39 5 61 3 65 -4 5 -7 21 -9 46 -5 27 5
39 3 39 -5 0 -8 10 -9 29 -5 17 3 32 2 36 -4 3 -6 17 -8 31 -5 15 4 24 2 24
-5 0 -7 9 -9 25 -5 16 4 25 2 25 -6 0 -7 8 -9 20 -5 11 3 20 2 20 -3 0 -6 9
-8 20 -5 11 3 20 0 20 -6 0 -5 7 -8 15 -5 8 4 15 1 15 -6 0 -7 8 -9 20 -5 11
4 20 2 20 -4 0 -6 7 -8 15 -5 8 4 15 1 15 -5 0 -6 7 -8 15 -5 8 4 15 1 15 -5
0 -6 7 -8 15 -5 8 4 15 1 15 -6 0 -6 5 -8 10 -5 6 3 10 2 10 -4 0 -6 7 -8 15
-5 8 4 15 1 15 -5 0 -6 7 -8 17 -4 11 4 14 3 9 -5 -5 -8 -2 -10 8 -6 9 3 16 1
16 -6 0 -6 5 -8 10 -5 6 3 10 1 10 -5 0 -6 5 -8 10 -5 6 3 10 1 10 -5 0 -6 4
-9 9 -6 13 8 42 -4 35 -15 -3 -5 3 -6 12 -2 12 4 15 3 10 -5 -5 -8 -1 -10 10
-5 12 4 15 3 10 -5 -4 -8 -2 -10 8 -6 8 3 24 -4 35 -15 12 -12 23 -21 26 -21
3 0 10 0 16 0 5 0 7 -5 3 -12 -5 -7 -3 -8 6 -3 8 5 20 -1 32 -16 11 -13 17
-17 13 -9 -4 8 3 4 15 -10 12 -14 19 -18 15 -10 -4 8 1 6 9 -4 9 -11 16 -16
16 -10 0 5 10 -2 21 -16 11 -14 18 -18 14 -10 -4 8 3 4 15 -10 12 -14 19 -18
15 -10 -3 8 6 2 20 -15 15 -16 24 -23 20 -15 -4 8 6 1 22 -15 15 -17 24 -24
19 -15 -4 8 11 -5 35 -30 24 -25 38 -37 30 -25 -8 11 18 -13 56 -54 38 -41
103 -106 144 -144 41 -38 65 -64 54 -56 -12 8 -2 -4 20 -26 50 -49 87 -94 65
-80 -9 6 -4 -1 10 -15 15 -14 33 -34 41 -44 12 -17 12 -19 -1 -12 -8 4 -4 -2
10 -14 14 -12 18 -19 10 -15 -8 4 -4 -3 10 -15 14 -12 18 -18 10 -14 -8 4 -2
-5 13 -19 15 -15 26 -31 23 -36 -3 -5 1 -12 10 -15 9 -4 14 -13 10 -22 -3 -8
-2 -12 4 -9 9 6 14 -8 11 -27 0 -5 4 -8 10 -8 5 0 7 -4 4 -10 -3 -5 -1 -10 5
-10 6 0 8 -4 5 -10 -3 -5 -1 -10 5 -10 6 0 8 -4 5 -10 -3 -5 -1 -10 5 -10 6 0
8 -4 5 -10 -3 -5 -1 -10 5 -10 6 0 8 -4 5 -10 -3 -5 -1 -10 5 -10 6 0 8 -4 5
-10 -3 -5 -1 -10 5 -10 7 0 9 -7 6 -16 -4 -10 -2 -13 6 -8 8 5 9 2 5 -9 -3
-10 -2 -17 4 -17 6 0 7 -4 4 -10 -3 -5 -1 -10 5 -10 7 0 10 -7 6 -15 -3 -8 -1
-15 4 -15 5 0 6 -7 3 -17 -5 -12 -3 -14 7 -8 10 6 12 4 7 -8 -4 -10 -2 -17 4
-17 6 0 9 -7 5 -15 -3 -8 -1 -15 5 -15 6 0 9 -7 5 -15 -3 -8 -1 -15 5 -15 6 0
8 -9 4 -21 -5 -16 -4 -19 6 -14 9 6 11 2 7 -13 -4 -12 -2 -22 4 -22 5 0 6 -9
3 -20 -4 -12 -2 -20 5 -20 7 0 9 -8 5 -20 -4 -12 -2 -20 5 -20 7 0 9 -8 5 -20
-4 -12 -2 -20 5 -20 8 0 10 -9 6 -25 -4 -16 -2 -25 5 -25 7 0 9 -9 5 -25 -4
-16 -2 -25 5 -25 7 0 9 -11 6 -30 -4 -19 -2 -30 5 -30 7 0 8 -14 4 -40 -4 -26
-2 -40 5 -40 7 0 9 -16 4 -49 -4 -31 -3 -51 4 -56 15 -9 15 -271 0 -281 -7 -4
-9 -22 -4 -49 4 -27 2 -46 -5 -50 -6 -4 -8 -20 -4 -41 4 -22 2 -34 -5 -34 -7
0 -9 -9 -5 -25 4 -16 2 -25 -5 -25 -7 0 -9 -9 -5 -25 4 -16 2 -25 -6 -25 -7 0
-9 -8 -5 -20 4 -12 2 -20 -5 -20 -7 0 -9 -8 -5 -20 4 -12 2 -20 -5 -20 -7 0
-9 -8 -5 -20 4 -11 2 -20 -4 -20 -6 0 -8 -7 -5 -15 4 -8 1 -15 -5 -15 -6 0 -8
-7 -5 -15 4 -8 1 -15 -6 -15 -7 0 -9 -8 -5 -21 5 -16 4 -19 -6 -14 -9 6 -11 3
-6 -8 3 -10 2 -17 -3 -17 -5 0 -7 -7 -4 -15 4 -8 1 -15 -5 -15 -6 0 -8 -7 -5
-15 4 -8 1 -15 -6 -15 -6 0 -8 -4 -5 -10 3 -5 2 -10 -4 -10 -6 0 -8 -7 -5 -15
4 -8 1 -15 -6 -15 -6 0 -8 -4 -5 -10 3 -5 1 -10 -5 -10 -6 0 -8 -4 -5 -10 3
-5 2 -10 -4 -10 -6 0 -7 -7 -4 -17 5 -12 3 -14 -7 -8 -10 6 -12 4 -7 -8 3 -10
2 -17 -4 -17 -6 0 -7 -4 -4 -10 3 -5 1 -10 -5 -10 -6 0 -8 -4 -5 -10 3 -5 1
-10 -5 -10 -6 0 -8 -4 -5 -10 3 -5 1 -10 -5 -10 -6 0 -8 -4 -5 -10 3 -5 1 -10
-5 -10 -6 0 -8 -4 -5 -10 3 -5 1 -10 -5 -10 -6 0 -8 -4 -5 -10 3 -5 1 -10 -6
-10 -7 0 -9 -3 -6 -7 4 -3 -1 -12 -11 -20 -9 -8 -11 -11 -4 -8 11 6 12 3 3
-14 -7 -11 -17 -21 -23 -21 -6 0 -8 -3 -5 -7 4 -3 -1 -12 -11 -20 -9 -8 -11
-12 -4 -8 21 11 13 -5 -15 -32 -16 -15 -21 -23 -13 -19 8 4 4 -2 -10 -14 -14
-12 -18 -19 -10 -15 8 4 4 -3 -10 -15 -14 -12 -18 -19 -10 -15 8 4 4 -3 -10
-15 -14 -12 -19 -19 -11 -15 9 5 8 -1 -4 -19 -17 -25 -34 -38 -19 -14 4 7 3 8
-5 4 -6 -4 -9 -12 -5 -17 3 -6 -14 -29 -38 -52 -23 -23 -34 -35 -23 -28 11 8
-17 -21 -62 -63 -45 -42 -110 -107 -144 -144 -34 -37 -56 -58 -49 -47 7 11 -4
2 -25 -20 -20 -22 -34 -33 -30 -25 4 8 -5 2 -20 -15 -14 -16 -23 -23 -20 -15
4 8 -3 3 -16 -11 -13 -14 -33 -32 -43 -40 -17 -12 -19 -12 -12 1 4 8 -1 5 -11
-7 -10 -12 -25 -23 -33 -25 -8 -2 -21 -10 -28 -18 -12 -13 -13 -13 -7 0 4 8
-1 6 -9 -4 -9 -11 -16 -16 -16 -11 0 5 -7 0 -16 -11 -8 -10 -13 -12 -9 -4 4 8
-1 6 -9 -4 -9 -11 -16 -17 -16 -13 0 4 -9 -2 -20 -13 -12 -12 -25 -18 -30 -15
-6 4 -10 2 -10 -4 0 -6 -10 -15 -21 -22 -17 -9 -20 -8 -14 3 3 7 0 5 -8 -4 -8
-10 -16 -16 -18 -14 -2 3 -4 -241 -4 -540 0 -299 3 -544 8 -544 4 0 7 5 7 11
0 5 5 7 10 4 6 -3 10 -1 10 5 0 6 5 8 10 5 6 -3 10 -1 10 5 0 7 7 9 16 6 10
-4 13 -2 8 6 -5 8 -2 9 9 5 10 -3 17 -2 17 4 0 6 5 7 10 4 6 -3 10 -1 10 5 0
6 5 8 10 5 6 -3 10 -1 10 5 0 6 5 8 10 5 6 -3 10 -1 10 5 0 6 5 8 10 5 6 -3
10 -1 10 5 0 7 7 9 16 6 8 -3 13 -2 10 3 -7 11 22 23 35 15 5 -3 9 0 9 6 0 6
5 8 10 5 6 -3 10 -1 10 5 0 6 5 8 10 5 6 -3 10 -1 10 5 0 6 5 8 10 5 6 -3 10
-1 10 5 0 6 5 8 10 5 6 -3 10 -1 10 5 0 6 5 8 10 5 6 -3 10 -1 10 5 0 7 7 9
16 6 8 -3 13 -2 10 3 -7 11 22 23 35 15 5 -3 9 0 9 6 0 6 5 8 10 5 6 -3 10 -1
10 5 0 6 5 8 10 5 6 -3 10 -1 10 5 0 6 5 8 10 5 6 -3 10 -1 10 5 0 6 5 8 10 5
6 -3 10 -1 10 5 0 7 7 9 16 6 8 -3 13 -2 10 3 -7 11 22 23 35 15 5 -3 9 0 9 6
0 6 5 8 10 5 6 -3 10 -1 10 5 0 6 5 8 10 5 6 -3 10 -1 10 5 0 6 5 8 10 5 6 -3
10 -1 10 5 0 6 5 8 10 5 6 -3 10 -1 10 5 0 7 7 9 16 6 8 -3 13 -2 10 3 -7 11
22 23 35 15 5 -3 9 0 9 6 0 6 5 8 10 5 6 -3 10 -1 10 5 0 6 5 8 10 5 6 -3 10
-1 10 5 0 6 5 8 10 5 6 -3 10 -1 10 5 0 6 5 8 10 5 6 -3 10 -1 10 5 0 7 7 9
16 6 8 -3 13 -2 10 3 -7 11 22 23 35 15 5 -3 9 0 9 6 0 6 5 8 10 5 6 -3 10 -1
10 5 0 6 5 8 10 5 6 -3 10 -1 10 5 0 6 5 8 10 5 6 -3 10 -1 10 5 0 6 5 8 10 5
6 -3 10 -1 10 5 0 7 7 9 16 6 8 -3 13 -2 10 3 -7 11 22 23 35 15 5 -3 9 0 9 6
0 6 5 8 10 5 6 -3 10 -1 10 5 0 6 5 8 10 5 6 -3 10 -1 10 5 0 6 5 8 10 5 6 -3
10 -1 10 5 0 6 5 8 10 5 6 -3 10 -1 10 5 0 7 7 9 16 6 8 -3 13 -2 10 3 -7 11
22 23 35 15 5 -3 9 0 9 6 0 6 5 8 10 5 6 -3 10 -1 10 5 0 6 5 8 10 5 6 -3 10
-1 10 5 0 6 5 8 10 5 6 -3 10 -1 10 5 0 6 5 8 10 5 6 -3 10 -1 10 5 0 7 7 9
16 6 8 -3 13 -2 10 3 -7 11 22 23 35 15 5 -3 9 0 9 6 0 6 5 8 10 5 6 -3 10 -1
10 5 0 6 5 8 10 5 6 -3 10 -1 10 5 0 6 5 8 10 5 6 -3 10 -1 10 6 0 7 3 10 6 6
4 -3 13 1 21 9 9 8 22 13 30 10 8 -3 12 -2 9 3 -7 11 22 23 35 15 5 -3 9 0 9
6 0 6 5 8 10 5 6 -3 10 -1 10 5 0 6 5 8 10 5 6 -3 10 -1 10 5 0 6 5 8 10 5 6
-3 10 -1 10 5 0 6 5 8 10 5 6 -3 10 -1 10 5 0 7 7 9 16 6 8 -3 13 -2 10 3 -7
11 22 23 35 15 5 -3 9 0 9 6 0 6 5 8 10 5 6 -3 10 -1 10 5 0 6 5 8 10 5 6 -3
10 -1 10 5 0 6 5 8 10 5 6 -3 10 -1 10 5 0 6 5 8 10 5 6 -3 10 -1 10 5 0 7 7
9 16 6 8 -3 13 -2 10 3 -7 11 22 23 35 15 5 -3 9 0 9 6 0 6 5 8 10 5 6 -3 10
-1 10 5 0 6 5 8 10 5 6 -3 10 -1 10 5 0 6 5 8 10 5 6 -3 10 -1 10 5 0 6 5 8
10 5 6 -3 10 -1 10 5 0 7 7 9 16 6 10 -4 13 -2 8 6 -5 8 -2 9 10 5 9 -4 15 -3
12 2 -7 11 22 23 35 15 5 -3 9 0 9 6 0 6 5 8 10 5 6 -3 10 -1 10 5 0 6 5 8 10
5 6 -3 10 -1 10 5 0 6 5 8 10 5 6 -3 10 -1 10 5 0 6 5 8 10 5 6 -3 10 -1 10 5
0 7 7 9 16 6 8 -3 13 -2 10 3 -7 11 22 23 35 15 5 -3 9 0 9 6 0 6 5 8 10 5 6
-3 10 -1 10 5 0 6 5 8 10 5 6 -3 10 -1 10 5 0 6 5 8 10 5 6 -3 10 -1 10 5 0 6
5 8 10 5 6 -3 10 -1 10 5 0 7 7 9 16 6 10 -4 13 -2 8 6 -5 8 -2 9 10 5 9 -4
15 -3 12 2 -7 11 22 23 35 15 5 -3 9 0 9 6 0 6 5 8 10 5 6 -3 10 -1 10 5 0 6
5 8 10 5 6 -3 10 -1 10 5 0 6 5 8 10 5 6 -3 10 -1 10 5 0 7 7 9 16 6 10 -4 13
-2 8 6 -5 8 -2 9 10 5 9 -4 15 -3 12 2 -7 11 22 23 35 15 5 -3 9 0 9 6 0 6 5
8 10 5 6 -3 10 -1 10 5 0 6 5 8 10 5 6 -3 10 -1 10 5 0 6 5 8 10 5 6 -3 10 -1
10 5 0 6 5 8 10 5 6 -3 10 -1 10 5 0 7 7 9 16 6 8 -3 13 -2 10 3 -7 11 22 23
35 15 5 -3 9 0 9 6 0 6 5 8 10 5 6 -3 10 -1 10 5 0 6 5 8 10 5 6 -3 10 -1 10
5 0 6 5 8 10 5 6 -3 10 -1 10 5 0 6 5 8 10 5 6 -3 10 -1 10 4 0 6 7 11 15 11
13 0 15 221 15 1925 l0 1925 -1756 0 c-1288 0 -1753 -3 -1748 -11z m1394 -614
c30 -30 52 -55 49 -55 -2 0 -29 25 -59 55 -30 30 -52 55 -49 55 2 0 29 -25 59
-55z m70 -2918 c0 -1 -37 -38 -82 -82 l-83 -80 80 83 c74 76 85 87 85 79z"/>
<path d="M1923 8367 c-3 -5 -18 -6 -34 -3 -15 3 -31 1 -35 -5 -3 -6 -17 -8
-30 -5 -15 4 -24 2 -24 -5 0 -7 -9 -9 -25 -5 -15 4 -25 2 -25 -4 0 -7 -8 -9
-21 -5 -16 5 -19 4 -14 -6 6 -9 2 -11 -13 -7 -12 4 -22 2 -22 -4 0 -6 -7 -8
-15 -4 -8 3 -15 1 -15 -5 0 -6 -7 -9 -15 -5 -8 3 -15 1 -15 -5 0 -6 -7 -9 -15
-5 -8 3 -15 1 -15 -5 0 -6 -7 -9 -15 -5 -8 3 -15 1 -15 -5 0 -6 -4 -7 -10 -4
-5 3 -10 1 -10 -5 0 -7 -7 -10 -15 -6 -8 3 -15 1 -15 -5 0 -6 -4 -7 -10 -4 -5
3 -10 1 -10 -5 0 -6 -4 -8 -10 -5 -5 3 -10 1 -10 -5 0 -7 -7 -9 -16 -6 -10 4
-13 2 -8 -6 5 -8 2 -9 -10 -5 -11 5 -15 3 -10 -5 5 -8 2 -9 -10 -5 -11 5 -15
3 -10 -5 5 -8 2 -9 -10 -5 -10 4 -15 3 -11 -3 6 -9 -8 -14 -27 -11 -5 0 -8 -4
-8 -11 0 -6 -3 -8 -7 -5 -3 4 -11 0 -17 -8 -6 -7 -18 -15 -26 -17 -8 -2 -21
-10 -28 -18 -12 -13 -13 -13 -7 0 4 8 -3 4 -15 -10 -12 -14 -18 -18 -14 -10 4
8 -7 0 -24 -18 -17 -19 -36 -31 -41 -28 -5 4 -13 1 -17 -5 -5 -8 -3 -9 7 -4
16 9 8 2 -36 -35 -24 -20 -27 -21 -15 -5 8 12 -2 3 -22 -20 -21 -22 -38 -36
-38 -30 0 5 -20 -10 -44 -34 -25 -24 -44 -48 -43 -53 1 -4 -14 -23 -34 -40
-19 -18 -26 -26 -15 -18 17 12 16 9 -4 -15 -37 -44 -44 -52 -35 -36 5 10 4 12
-4 7 -6 -4 -9 -12 -5 -17 3 -5 -9 -24 -28 -41 -18 -17 -26 -28 -18 -24 8 4 4
-2 -10 -14 -14 -12 -18 -19 -10 -15 13 6 13 5 0 -7 -8 -7 -16 -20 -18 -28 -2
-8 -10 -20 -17 -26 -8 -6 -12 -14 -8 -17 3 -4 1 -7 -5 -7 -7 0 -11 -3 -11 -7
3 -20 -2 -34 -11 -28 -6 4 -7 -1 -3 -11 4 -12 3 -15 -5 -10 -8 5 -10 1 -5 -10
4 -12 3 -15 -5 -10 -8 5 -10 2 -6 -8 3 -9 1 -16 -6 -16 -6 0 -8 -4 -5 -10 3
-5 1 -10 -5 -10 -6 0 -8 -4 -5 -10 3 -5 2 -10 -4 -10 -6 0 -8 -7 -5 -15 4 -8
1 -15 -6 -15 -6 0 -8 -4 -5 -10 3 -5 2 -10 -4 -10 -6 0 -8 -7 -5 -15 4 -8 1
-15 -5 -15 -6 0 -8 -7 -5 -15 4 -8 1 -15 -5 -15 -6 0 -8 -7 -4 -17 5 -11 3
-14 -6 -8 -10 5 -11 2 -6 -14 4 -12 2 -21 -4 -21 -6 0 -8 -7 -5 -15 4 -8 1
-15 -6 -15 -7 0 -9 -8 -5 -20 4 -12 2 -20 -5 -20 -6 0 -8 -10 -4 -25 4 -16 2
-25 -5 -25 -7 0 -9 -9 -5 -25 4 -15 2 -25 -5 -25 -6 0 -8 -11 -4 -30 3 -19 1
-30 -6 -30 -7 0 -9 -15 -4 -45 3 -26 2 -45 -4 -45 -5 0 -10 -52 -10 -125 0
-76 4 -125 10 -125 6 0 7 -18 4 -45 -4 -26 -2 -47 4 -51 6 -3 7 -19 4 -35 -4
-19 -3 -29 5 -29 8 0 10 -9 6 -25 -4 -15 -2 -25 4 -25 7 0 9 -8 5 -20 -4 -12
-2 -20 5 -20 7 0 10 -8 7 -20 -3 -11 -1 -20 5 -20 5 0 6 -9 3 -20 -4 -12 -2
-20 5 -20 7 0 10 -7 6 -15 -3 -8 -1 -15 5 -15 6 0 9 -7 5 -15 -3 -8 -1 -15 5
-15 6 0 9 -7 5 -15 -3 -8 -1 -15 4 -15 5 0 6 -7 3 -17 -5 -12 -3 -14 7 -8 10
6 12 4 7 -8 -3 -10 -2 -17 3 -17 5 0 6 -7 3 -17 -4 -10 -2 -14 4 -10 12 8 26
-20 17 -34 -3 -5 0 -9 6 -9 6 0 8 -4 5 -10 -3 -5 -1 -10 5 -10 6 0 8 -4 5 -10
-3 -5 -1 -10 5 -10 6 0 8 -4 5 -10 -3 -5 -1 -10 5 -10 6 0 8 -4 5 -10 -3 -5
-2 -10 4 -10 6 0 15 -10 22 -21 9 -17 8 -20 -3 -14 -7 3 -4 -1 6 -9 11 -9 16
-16 11 -16 -5 0 0 -7 11 -16 10 -8 12 -13 4 -9 -8 4 -4 -3 10 -15 14 -12 18
-19 10 -15 -8 4 -4 -3 10 -15 14 -12 18 -19 10 -15 -8 4 -1 -5 15 -20 17 -14
24 -23 16 -19 -8 4 5 -12 28 -35 23 -23 40 -45 37 -49 -3 -5 32 -44 77 -88 45
-43 71 -65 57 -48 -14 17 0 5 30 -25 30 -31 48 -47 41 -36 -7 11 1 4 19 -15
18 -19 29 -28 26 -20 -4 8 5 2 19 -15 15 -16 24 -23 20 -15 -4 8 3 4 15 -10
12 -14 19 -18 15 -10 -4 8 3 4 15 -10 12 -14 19 -18 15 -10 -4 8 1 6 9 -4 9
-11 16 -16 16 -11 0 5 7 0 16 -11 8 -10 13 -12 9 -4 -4 10 -2 9 8 -2 8 -10 17
-15 20 -11 4 3 7 1 7 -6 0 -7 5 -9 10 -6 6 3 10 1 10 -4 0 -6 3 -10 8 -9 15 4
52 -14 47 -23 -3 -5 1 -6 9 -3 9 3 16 1 16 -6 0 -6 5 -8 10 -5 6 3 10 1 10 -5
0 -6 5 -8 10 -5 6 3 10 2 10 -4 0 -6 7 -7 17 -4 11 4 14 3 9 -5 -5 -8 -2 -10
8 -6 9 3 16 1 16 -6 0 -6 5 -8 10 -5 6 3 10 2 10 -4 0 -6 7 -8 15 -5 8 4 15 1
15 -5 0 -6 7 -8 15 -5 8 4 15 1 15 -5 0 -6 7 -8 15 -5 8 4 15 1 15 -5 0 -6 7
-8 15 -5 8 4 15 1 15 -5 0 -6 7 -8 15 -5 8 4 15 1 15 -6 0 -7 8 -9 20 -5 12 4
20 2 20 -5 0 -6 10 -8 25 -4 14 3 25 2 25 -3 0 -11 61 -15 275 -14 213 1 287
4 302 14 7 4 24 5 38 1 16 -4 25 -2 25 6 0 7 8 10 20 7 11 -3 20 -1 20 5 0 6
9 8 20 5 11 -3 20 -1 20 5 0 5 9 6 20 3 11 -4 20 -2 20 4 0 6 7 8 15 5 8 -4
15 -1 15 5 0 6 7 8 17 4 12 -5 14 -3 8 7 -6 10 -4 12 8 7 10 -3 17 -2 17 3 0
5 7 6 17 3 12 -5 14 -3 8 7 -6 10 -4 12 8 7 10 -3 17 -2 17 4 0 6 5 7 10 4 6
-3 10 -1 10 5 0 6 5 8 10 5 6 -3 10 -1 10 5 0 7 7 9 16 6 10 -4 13 -2 8 6 -5
8 -2 9 10 5 11 -5 15 -3 10 5 -5 8 -2 9 10 5 11 -5 15 -3 10 5 -5 8 -2 9 10 5
11 -5 15 -3 10 5 -5 8 -2 9 10 5 10 -4 15 -3 11 3 -6 9 8 14 28 11 4 0 7 4 7
11 0 6 3 8 7 5 3 -4 11 0 17 8 6 7 18 15 26 17 8 2 21 10 28 18 12 13 13 13 7
0 -4 -8 3 -4 15 10 12 14 19 18 15 10 -4 -8 5 -1 20 15 14 17 23 23 20 15 -4
-8 3 -4 16 10 13 14 20 19 15 10 -5 -8 8 3 30 26 21 22 35 33 29 24 -5 -8 11
8 38 36 26 29 69 72 95 96 26 24 41 39 32 33 -9 -5 2 8 24 29 23 22 34 36 26
32 -8 -4 -1 5 15 19 17 15 24 24 17 20 -11 -6 -11 -3 -1 13 7 12 17 18 21 16
5 -3 8 -2 7 3 -4 21 2 34 13 27 7 -4 8 -3 4 4 -4 7 5 24 21 39 15 14 22 23 15
18 -11 -6 -12 -3 -3 14 7 11 16 21 22 21 6 0 7 5 4 10 -3 6 -1 10 5 10 6 0 8
5 5 10 -3 6 -1 10 4 10 6 0 10 3 9 8 -4 14 13 52 23 52 6 0 7 5 4 10 -3 6 -1
10 5 10 6 0 8 5 5 10 -3 6 -2 10 4 10 6 0 7 7 4 17 -4 11 -3 14 5 9 8 -5 10
-2 6 8 -3 9 -1 16 5 16 6 0 8 7 4 17 -5 12 -3 14 7 8 10 -6 12 -4 7 8 -3 10
-2 17 3 17 5 0 7 7 4 15 -4 8 -1 15 5 15 6 0 8 7 5 15 -4 8 -1 15 6 15 7 0 9
8 5 20 -4 11 -2 20 4 20 6 0 8 7 5 15 -4 8 -1 15 5 15 7 0 9 10 5 26 -5 20 -4
25 5 20 8 -6 10 0 5 18 -4 16 -2 26 5 26 6 0 8 11 5 30 -4 20 -2 30 5 30 8 0
10 11 5 35 -3 19 -2 35 2 35 11 0 10 333 0 349 -4 6 -5 25 -1 41 4 20 3 30 -5
30 -8 0 -10 9 -6 25 4 16 2 25 -5 25 -7 0 -9 9 -5 25 4 15 2 25 -4 25 -7 0 -9
8 -5 20 4 12 2 20 -5 20 -7 0 -9 8 -5 20 4 12 2 20 -5 20 -7 0 -10 7 -6 15 3
8 1 15 -5 15 -6 0 -9 7 -5 15 3 8 1 15 -5 15 -6 0 -9 7 -5 15 3 8 1 15 -5 15
-6 0 -9 7 -5 15 3 8 1 15 -4 15 -5 0 -6 7 -3 17 5 12 3 14 -7 8 -10 -6 -12 -4
-7 8 3 10 2 17 -4 17 -6 0 -7 5 -4 10 3 6 1 10 -5 10 -7 0 -9 7 -6 16 4 10 2
13 -6 8 -8 -5 -9 -2 -5 10 5 11 3 15 -5 10 -8 -5 -9 -2 -5 10 5 11 3 15 -5 10
-8 -5 -9 -2 -5 10 5 11 3 15 -5 10 -8 -5 -9 -2 -5 10 5 11 3 15 -5 10 -8 -5
-9 -2 -5 10 4 10 3 15 -3 11 -6 -3 -10 -1 -10 4 0 20 -3 26 -16 36 -7 6 -14
17 -16 25 -2 8 -10 21 -18 28 -13 12 -13 13 0 7 8 -4 4 3 -10 15 -14 12 -18
19 -10 15 8 -4 2 5 -15 20 -16 14 -24 23 -16 19 8 -4 -5 12 -27 34 -23 23 -41
45 -40 49 3 10 -195 208 -205 205 -4 -1 -26 17 -49 40 -22 22 -38 35 -34 27 4
-8 -5 0 -19 16 -15 17 -24 23 -20 15 4 -8 -3 -4 -15 10 -12 14 -19 18 -15 10
6 -13 5 -13 -7 0 -7 8 -20 16 -28 18 -8 2 -20 10 -26 17 -6 8 -14 12 -17 8 -4
-3 -7 -1 -7 6 0 7 -4 9 -10 6 -5 -3 -10 -1 -10 5 0 6 -4 8 -10 5 -5 -3 -10 -1
-10 5 0 6 -4 8 -10 5 -5 -3 -10 -1 -10 5 0 6 -4 8 -10 5 -5 -3 -10 -1 -10 5 0
6 -4 8 -10 5 -5 -3 -10 -2 -10 4 0 6 -7 7 -17 4 -11 -4 -14 -3 -9 5 5 8 2 10
-8 6 -9 -3 -16 -1 -16 5 0 6 -7 8 -17 4 -11 -4 -14 -3 -9 5 5 8 2 10 -8 6 -9
-3 -16 -1 -16 5 0 6 -7 8 -15 5 -8 -4 -15 -1 -15 5 0 6 -7 8 -15 5 -8 -4 -15
-1 -15 5 0 6 -7 8 -15 5 -8 -4 -15 -1 -15 5 0 6 -7 8 -15 5 -8 -4 -15 -1 -15
6 0 7 -8 9 -20 5 -12 -4 -20 -2 -20 5 0 7 -8 9 -20 5 -12 -4 -20 -2 -20 5 0 6
-10 8 -25 4 -16 -4 -25 -2 -25 5 0 7 -9 9 -25 5 -16 -4 -25 -2 -25 5 0 8 -11
10 -35 5 -19 -3 -35 -2 -35 3 0 11 -360 11 -367 0z m1202 -367 c10 -11 16 -20
13 -20 -3 0 -13 9 -23 20 -10 11 -16 20 -13 20 3 0 13 -9 23 -20z m-2075 -43
c0 -2 -19 -21 -42 -42 l-43 -40 40 43 c36 39 45 47 45 39z m2235 -117 c10 -11
16 -20 13 -20 -3 0 -13 9 -23 20 -10 11 -16 20 -13 20 3 0 13 -9 23 -20z
m-1058 -213 c7 -4 24 -5 38 -1 16 4 25 2 25 -6 0 -8 9 -10 25 -6 14 4 25 2 25
-3 0 -6 7 -8 15 -5 8 4 15 1 15 -6 0 -7 7 -10 15 -6 8 3 15 1 15 -4 0 -5 7 -7
15 -4 8 4 15 1 15 -6 0 -6 5 -8 10 -5 6 3 10 1 10 -5 0 -6 5 -8 10 -5 6 3 10
1 10 -5 0 -6 5 -8 10 -5 6 3 10 1 10 -5 0 -6 5 -8 10 -5 6 3 10 1 10 -4 0 -6
3 -10 8 -10 21 4 36 -5 74 -43 24 -24 36 -34 28 -23 -8 11 16 -9 53 -45 71
-68 122 -129 96 -116 -7 4 -3 -2 11 -13 14 -11 22 -21 18 -21 -5 0 1 -9 12
-20 12 -12 18 -25 15 -30 -4 -6 -1 -10 5 -10 6 0 8 -4 5 -10 -3 -5 -1 -10 5
-10 6 0 8 -4 5 -10 -3 -5 -1 -10 5 -10 6 0 8 -4 5 -10 -3 -5 -1 -10 5 -10 7 0
10 -7 6 -15 -3 -8 -1 -15 5 -15 6 0 7 -4 4 -10 -3 -5 -1 -10 5 -10 7 0 10 -7
6 -15 -3 -8 -1 -15 5 -15 6 0 8 -9 4 -20 -4 -12 -2 -20 5 -20 7 0 9 -8 5 -20
-4 -12 -2 -20 5 -20 8 0 9 -10 5 -30 -4 -16 -3 -30 2 -30 4 0 8 -49 8 -110 0
-60 -4 -110 -8 -110 -5 0 -6 -13 -2 -30 4 -20 3 -30 -5 -30 -7 0 -9 -8 -5 -20
4 -11 2 -20 -4 -20 -6 0 -8 -7 -5 -15 4 -8 1 -15 -6 -15 -7 0 -10 -7 -6 -15 3
-8 1 -15 -4 -15 -5 0 -7 -7 -4 -15 4 -8 1 -15 -6 -15 -6 0 -8 -4 -5 -10 3 -5
2 -10 -4 -10 -6 0 -8 -6 -5 -14 3 -8 -3 -23 -14 -34 -11 -11 -18 -23 -14 -26
3 -3 0 -6 -6 -6 -7 0 -11 -3 -11 -7 4 -22 -4 -36 -38 -70 -21 -20 -31 -34 -23
-29 8 4 -5 -10 -29 -32 -24 -21 -62 -59 -84 -83 -22 -24 -36 -37 -31 -29 5 9
-2 4 -15 -10 -13 -14 -20 -18 -16 -10 4 8 -3 4 -15 -10 -12 -14 -19 -18 -15
-10 4 8 -2 5 -12 -6 -22 -27 -100 -67 -113 -59 -6 3 -10 1 -10 -5 0 -7 -7 -10
-15 -6 -8 3 -15 1 -15 -4 0 -5 -7 -7 -15 -4 -8 4 -15 1 -15 -6 0 -7 -7 -10
-15 -6 -8 3 -15 0 -15 -5 0 -6 -9 -9 -20 -6 -11 3 -23 1 -26 -5 -3 -5 -19 -6
-35 -3 -16 4 -29 3 -29 -2 0 -5 -45 -9 -100 -10 -55 0 -100 4 -100 9 0 5 -13
7 -30 3 -19 -4 -30 -3 -30 4 0 7 -10 9 -26 5 -20 -5 -25 -4 -19 6 5 9 2 10
-14 5 -12 -4 -21 -2 -21 4 0 6 -7 8 -15 5 -8 -4 -15 -1 -15 5 0 6 -7 8 -15 5
-8 -4 -15 -1 -15 5 0 6 -7 8 -17 4 -11 -4 -14 -3 -9 5 5 8 2 10 -8 6 -9 -3
-16 -1 -16 5 0 6 -3 10 -7 10 -20 -3 -34 2 -28 11 3 5 0 7 -9 4 -9 -3 -31 11
-58 38 -23 24 -36 34 -29 23 8 -11 -9 6 -38 37 -28 31 -75 78 -104 104 -28 25
-45 43 -37 38 9 -5 2 4 -15 19 -16 16 -23 25 -15 21 8 -4 2 5 -13 19 -15 15
-25 32 -22 37 3 6 1 10 -5 10 -6 0 -8 5 -5 10 3 6 1 10 -5 10 -6 0 -8 5 -5 10
3 6 1 10 -5 10 -6 0 -8 5 -5 10 3 6 1 10 -5 10 -7 0 -9 7 -6 16 4 10 2 13 -6
8 -8 -5 -9 -2 -5 9 3 10 2 17 -4 17 -6 0 -8 9 -4 20 4 12 2 20 -4 20 -7 0 -9
14 -5 39 4 24 2 41 -5 45 -15 10 -15 262 0 272 7 4 9 21 5 45 -4 25 -2 39 5
39 6 0 8 8 4 20 -4 11 -2 20 4 20 6 0 7 7 4 17 -5 12 -3 14 7 8 10 -6 12 -4 7
8 -3 10 -2 17 4 17 6 0 7 5 4 10 -3 6 -1 10 5 10 6 0 8 5 5 10 -3 6 -1 10 5
10 6 0 8 5 5 10 -3 6 -1 10 5 10 6 0 8 5 5 10 -3 6 -1 10 5 10 6 0 8 4 5 10
-3 5 7 22 22 37 15 14 21 23 13 19 -8 -4 -4 2 10 14 14 12 18 19 10 15 -8 -4
1 8 21 27 19 18 27 27 17 19 -37 -29 -16 -3 49 59 37 36 61 56 53 44 -8 -11
-1 -6 15 11 17 17 39 38 49 46 17 12 19 12 12 -1 -4 -9 -2 -8 7 2 8 10 17 15
20 11 4 -3 7 -1 7 5 0 6 10 16 21 23 17 9 20 8 14 -3 -3 -7 0 -5 9 6 8 10 20
15 27 10 8 -5 10 -3 4 6 -6 10 -4 12 8 7 10 -3 17 -2 17 4 0 6 5 7 10 4 6 -3
10 -1 10 5 0 7 7 10 15 6 8 -3 15 -1 15 5 0 6 7 9 15 5 8 -3 15 -1 15 5 0 6 9
8 20 4 12 -4 20 -2 20 5 0 8 10 9 30 5 17 -4 30 -3 30 2 0 10 230 10 247 0z
m-687 -1382 c30 -30 52 -55 49 -55 -2 0 -29 25 -59 55 -30 30 -52 55 -49 55 2
0 29 -25 59 -55z m1170 12 c0 -2 -12 -14 -27 -28 l-28 -24 24 28 c23 25 31 32
31 24z m-1744 -479 l29 -33 -32 29 c-31 28 -38 36 -30 36 2 0 16 -15 33 -32z"/>
<path d="M6003 8367 c-3 -5 -21 -6 -39 -2 -23 4 -34 2 -34 -6 0 -7 -9 -9 -25
-5 -16 4 -25 2 -25 -5 0 -7 -9 -9 -25 -5 -15 4 -25 2 -25 -4 0 -7 -8 -9 -20
-5 -12 4 -20 2 -20 -5 0 -7 -7 -10 -15 -6 -8 3 -15 1 -15 -5 0 -6 -7 -9 -15
-5 -8 3 -15 1 -15 -5 0 -6 -7 -9 -15 -5 -8 3 -15 1 -15 -5 0 -6 -7 -9 -15 -5
-8 3 -15 1 -15 -5 0 -6 -7 -9 -15 -5 -8 3 -15 1 -15 -5 0 -6 -4 -7 -10 -4 -5
3 -10 1 -10 -5 0 -7 -7 -10 -15 -6 -8 3 -15 1 -15 -5 0 -6 -4 -7 -10 -4 -5 3
-10 1 -10 -5 0 -7 -7 -9 -16 -6 -10 4 -13 2 -8 -6 5 -8 2 -9 -10 -5 -9 4 -15
3 -12 -2 7 -11 -22 -23 -35 -15 -5 3 -9 1 -9 -5 0 -6 -14 -18 -31 -27 -23 -11
-29 -12 -24 -2 3 7 -1 4 -9 -6 -9 -11 -16 -17 -16 -13 0 4 -9 -2 -20 -13 -12
-12 -26 -18 -32 -14 -7 4 -8 3 -4 -4 7 -11 -6 -17 -27 -13 -5 1 -6 -2 -3 -7 2
-4 -4 -14 -16 -21 -16 -10 -19 -10 -13 1 4 7 -3 2 -16 -12 -13 -14 -20 -19
-15 -10 5 8 -8 -3 -29 -25 -20 -22 -31 -31 -24 -20 8 11 -24 -19 -71 -66 -47
-47 -60 -58 -30 -25 l55 61 -62 -59 c-34 -33 -60 -63 -58 -67 3 -4 -10 -20
-28 -36 -18 -15 -26 -24 -17 -19 8 4 -1 -6 -20 -24 -19 -18 -28 -29 -20 -26 8
4 2 -5 -15 -19 -16 -15 -23 -24 -15 -20 8 4 4 -3 -10 -15 -14 -12 -18 -19 -10
-15 8 4 4 -3 -10 -15 -14 -12 -18 -19 -10 -15 10 4 9 2 -2 -8 -10 -8 -15 -17
-11 -20 3 -4 -2 -9 -11 -13 -9 -3 -13 -10 -10 -15 3 -5 0 -9 -6 -9 -6 0 -9 -4
-5 -10 3 -5 -3 -18 -14 -29 -11 -11 -17 -22 -14 -25 4 -3 1 -6 -6 -6 -7 0 -9
-4 -6 -10 3 -5 1 -10 -5 -10 -6 0 -8 -4 -5 -10 3 -5 1 -10 -5 -10 -6 0 -8 -4
-5 -10 3 -5 2 -10 -4 -10 -6 0 -7 -7 -4 -17 4 -11 3 -14 -5 -9 -8 5 -10 2 -6
-8 3 -9 1 -16 -6 -16 -6 0 -8 -4 -5 -10 3 -5 2 -10 -4 -10 -6 0 -7 -7 -4 -17
5 -12 3 -14 -7 -8 -10 6 -12 4 -7 -8 3 -10 2 -17 -3 -17 -5 0 -7 -7 -4 -15 4
-8 1 -15 -5 -15 -6 0 -8 -7 -5 -15 4 -8 1 -15 -6 -15 -7 0 -9 -8 -5 -20 4 -11
2 -20 -4 -20 -6 0 -8 -7 -5 -15 4 -8 1 -15 -6 -15 -7 0 -9 -8 -5 -20 4 -12 2
-20 -5 -20 -8 0 -10 -9 -6 -25 4 -15 2 -25 -5 -25 -7 0 -8 -11 -4 -29 3 -16 2
-32 -4 -35 -6 -4 -8 -25 -5 -50 4 -27 2 -46 -5 -50 -15 -10 -15 -242 0 -252 8
-4 9 -25 5 -60 -4 -37 -3 -54 5 -54 7 0 9 -12 5 -35 -5 -24 -3 -35 5 -35 7 0
9 -9 5 -25 -4 -16 -2 -25 5 -25 7 0 9 -9 5 -25 -4 -16 -2 -25 5 -25 6 0 9 -7
5 -15 -3 -8 -1 -15 5 -15 6 0 8 -9 4 -20 -4 -11 -2 -20 4 -20 6 0 7 -7 4 -17
-5 -11 -3 -14 6 -8 10 6 11 2 6 -15 -5 -17 -4 -21 6 -15 9 6 11 3 6 -8 -3 -10
-2 -17 3 -17 5 0 6 -7 3 -17 -5 -12 -3 -14 7 -8 10 6 12 4 7 -8 -3 -10 -2 -17
4 -17 6 0 7 -4 4 -10 -3 -5 -1 -10 5 -10 6 0 8 -4 5 -10 -3 -5 -1 -10 5 -10 7
0 9 -7 6 -16 -4 -10 -2 -13 6 -8 8 5 9 2 5 -10 -5 -11 -3 -15 5 -10 8 5 9 2 5
-10 -4 -9 -3 -15 2 -12 4 3 13 -6 20 -20 9 -20 9 -24 -1 -19 -7 4 -5 0 4 -8
10 -8 15 -17 11 -20 -3 -4 0 -7 7 -7 7 0 10 -3 7 -7 -4 -3 1 -12 11 -20 10 -9
11 -12 2 -7 -8 4 -2 -5 13 -19 15 -15 25 -32 22 -37 -3 -6 -2 -10 4 -10 5 0
20 -14 32 -32 13 -18 17 -28 8 -23 -7 4 2 -7 21 -25 19 -18 26 -26 15 -19 -11
7 1 -7 26 -32 25 -24 36 -37 24 -29 -12 8 -1 -3 23 -26 25 -23 63 -61 86 -86
23 -24 34 -35 26 -23 -8 12 5 1 29 -24 25 -25 41 -39 37 -31 -4 8 5 2 19 -15
15 -16 24 -23 19 -15 -7 13 -5 13 12 1 10 -8 30 -26 43 -40 13 -14 20 -20 17
-13 -12 21 4 13 31 -15 15 -16 23 -21 19 -13 -5 9 -2 8 7 -2 8 -10 17 -15 20
-11 4 3 7 0 7 -7 0 -7 3 -10 7 -7 3 4 12 -1 20 -11 8 -9 12 -11 8 -4 -5 10 -1
10 19 1 14 -7 23 -16 20 -20 -3 -5 3 -6 12 -2 12 4 15 3 10 -5 -5 -8 -1 -10
10 -5 12 4 15 3 10 -5 -5 -8 -2 -10 8 -6 9 3 16 1 16 -6 0 -6 5 -8 10 -5 6 3
10 2 10 -4 0 -6 7 -7 17 -4 11 4 14 3 9 -5 -5 -8 -2 -10 8 -6 9 3 16 1 16 -5
0 -6 7 -8 17 -4 12 5 14 3 8 -7 -6 -10 -4 -12 8 -7 10 3 17 2 17 -3 0 -5 7 -7
15 -4 8 4 15 1 15 -5 0 -6 7 -8 15 -5 8 4 15 1 15 -5 0 -6 7 -8 15 -5 8 4 15
1 15 -5 0 -6 7 -8 15 -5 8 4 15 2 15 -4 0 -6 9 -8 20 -5 11 3 20 0 20 -6 0 -5
7 -8 15 -5 8 3 20 2 27 -2 18 -12 81 -15 283 -15 215 0 287 4 303 14 7 5 24 6
38 3 15 -4 24 -2 24 5 0 7 9 9 25 5 15 -4 25 -2 25 4 0 7 8 9 20 5 12 -4 20
-2 20 5 0 7 7 10 15 6 8 -3 15 -1 15 5 0 6 7 9 15 5 8 -3 15 -1 15 4 0 5 7 6
17 3 12 -5 14 -3 8 7 -6 10 -4 12 8 7 10 -3 17 -2 17 4 0 6 5 7 10 4 6 -3 10
-1 10 5 0 7 7 10 15 6 8 -3 15 -1 15 5 0 6 5 7 10 4 6 -3 10 -1 10 5 0 6 5 8
10 5 6 -3 10 -1 10 5 0 6 5 8 10 5 6 -3 10 -1 10 5 0 6 5 8 10 5 6 -3 10 -1
10 5 0 7 7 9 16 6 8 -3 12 -2 9 4 -6 9 8 14 28 11 4 0 7 4 7 10 0 5 5 7 10 4
6 -3 10 -1 10 5 0 6 5 8 10 5 6 -3 10 -2 10 4 0 6 10 15 21 22 17 9 20 8 14
-3 -5 -7 4 0 18 15 15 16 32 25 39 21 7 -4 8 -3 4 4 -7 11 6 17 27 13 5 -1 6
3 2 9 -3 5 -1 11 4 11 6 1 15 2 20 3 5 0 13 5 18 10 5 5 3 6 -4 2 -25 -14 -13
0 20 24 26 19 29 20 18 4 -8 -10 7 4 35 32 27 28 40 39 29 25 -11 -14 18 13
65 59 47 46 84 88 82 92 -1 4 17 27 40 50 22 22 35 37 27 33 -20 -12 6 22 40
54 14 13 19 20 11 16 -13 -6 -13 -5 0 7 8 7 16 20 18 28 2 8 10 21 19 28 9 6
13 12 8 12 -5 0 0 7 11 16 10 8 13 12 6 9 -10 -5 -9 1 2 24 9 17 21 31 27 31
6 0 8 4 5 9 -8 13 4 42 15 35 5 -3 6 3 2 12 -4 12 -3 15 5 10 8 -5 10 -2 6 8
-3 9 -1 16 6 16 6 0 8 5 5 10 -3 6 -2 10 4 10 6 0 8 7 5 15 -4 8 -1 15 6 15 6
0 8 5 5 10 -3 6 -2 10 4 10 6 0 8 7 5 15 -4 8 -1 15 5 15 6 0 8 7 5 15 -4 8
-1 15 5 15 6 0 8 7 5 15 -4 8 -1 15 5 15 6 0 8 7 5 15 -4 8 -1 15 6 15 7 0 9
8 5 20 -3 11 -2 20 3 20 6 0 8 9 5 20 -3 11 0 20 6 20 7 0 9 9 5 25 -4 16 -2
25 5 25 8 0 10 11 5 35 -4 22 -2 35 4 35 7 0 11 24 11 58 0 31 3 104 6 161 5
73 3 112 -6 127 -7 14 -9 40 -6 68 4 28 2 48 -4 52 -6 3 -8 19 -5 35 3 18 1
29 -5 29 -7 0 -9 10 -5 25 4 15 2 25 -4 25 -7 0 -9 8 -5 20 4 12 2 20 -5 20
-7 0 -10 7 -6 15 3 8 1 15 -5 15 -6 0 -9 7 -5 15 3 8 1 15 -5 15 -6 0 -9 7 -5
15 3 8 1 15 -5 15 -6 0 -9 7 -5 15 3 8 1 15 -5 15 -6 0 -9 7 -5 15 3 8 1 15
-5 15 -6 0 -7 5 -4 10 3 6 1 10 -5 10 -7 0 -10 7 -6 15 3 8 1 15 -5 15 -6 0
-7 5 -4 10 3 6 1 10 -5 10 -6 0 -8 5 -5 10 3 6 1 10 -5 10 -7 0 -9 7 -6 16 4
10 2 13 -6 8 -8 -5 -9 -2 -5 10 4 9 3 15 -2 12 -4 -3 -13 6 -20 20 -9 20 -9
24 1 19 7 -4 5 0 -4 8 -10 8 -15 17 -11 20 3 4 0 7 -7 7 -7 0 -10 3 -7 7 4 3
0 11 -8 17 -7 6 -15 18 -17 26 -2 8 -10 21 -18 28 -13 12 -13 13 0 7 8 -4 4 3
-10 15 -14 12 -18 19 -10 15 8 -4 2 5 -15 20 -16 14 -23 23 -15 20 8 -4 2 5
-15 20 -16 14 -23 23 -15 19 8 -4 -1 8 -21 27 -19 19 -28 30 -19 24 8 -5 -5 9
-30 32 -25 23 -41 42 -36 43 5 0 -1 11 -14 25 -12 13 -27 23 -32 22 -5 -1 -25
16 -46 38 -20 23 -32 34 -27 25 6 -9 -8 2 -29 24 -22 23 -35 34 -30 26 5 -9
-2 -4 -15 10 -13 14 -20 18 -16 10 3 -8 -6 -1 -20 15 -15 17 -24 23 -20 15 4
-8 -3 -4 -15 10 -12 14 -19 18 -15 10 6 -13 5 -13 -7 0 -7 8 -20 16 -28 18 -8
2 -20 10 -26 17 -6 8 -14 12 -17 8 -4 -3 -7 -1 -7 6 0 7 -4 9 -10 6 -5 -3 -10
-1 -10 4 0 6 -3 10 -7 10 -20 -3 -34 2 -28 11 3 5 0 7 -8 4 -8 -3 -21 2 -30
10 -8 8 -17 12 -21 9 -3 -4 -6 -1 -6 6 0 7 -4 9 -10 6 -5 -3 -10 -2 -10 4 0 6
-7 7 -17 4 -11 -4 -14 -3 -9 5 5 8 2 10 -8 6 -9 -3 -16 -1 -16 5 0 6 -7 8 -17
4 -12 -5 -14 -3 -8 7 6 10 4 12 -8 7 -10 -4 -17 -2 -17 4 0 6 -7 9 -15 5 -8
-3 -15 -1 -15 4 0 5 -7 7 -15 4 -8 -4 -15 -1 -15 6 0 7 -8 9 -20 5 -11 -4 -20
-2 -20 4 0 6 -7 8 -15 5 -8 -4 -15 -1 -15 6 0 7 -8 9 -20 5 -12 -4 -20 -2 -20
5 0 6 -10 8 -25 4 -16 -4 -25 -2 -25 5 0 7 -9 9 -24 5 -13 -3 -27 -1 -31 5 -3
6 -17 8 -30 5 -13 -3 -30 -2 -37 2 -18 12 -358 12 -365 1z m1292 -447 c10 -11
16 -20 13 -20 -3 0 -13 9 -23 20 -10 11 -16 20 -13 20 3 0 13 -9 23 -20z
m-1059 -281 c4 -7 21 -9 45 -5 26 4 39 2 39 -5 0 -7 9 -9 25 -5 15 4 25 2 25
-4 0 -7 8 -9 20 -5 11 4 20 2 20 -4 0 -6 7 -8 15 -5 8 4 15 1 15 -6 0 -7 7
-10 15 -6 8 3 15 1 15 -4 0 -5 7 -7 15 -4 8 4 15 1 15 -6 0 -6 5 -8 10 -5 6 3
10 1 10 -5 0 -6 5 -8 10 -5 6 3 10 1 10 -5 0 -6 5 -8 10 -5 6 3 10 1 10 -5 0
-6 5 -8 11 -4 7 4 20 -4 31 -17 11 -13 17 -18 13 -11 -11 22 6 13 38 -20 17
-18 27 -26 22 -19 -16 27 49 -26 110 -90 33 -35 49 -55 35 -44 -14 11 -4 -2
23 -28 43 -42 52 -57 48 -79 0 -5 4 -8 10 -8 5 0 8 -4 5 -9 -3 -5 1 -12 10
-15 9 -4 14 -13 10 -21 -3 -8 -1 -15 5 -15 6 0 7 -4 4 -10 -3 -5 -1 -10 5 -10
6 0 8 -4 5 -10 -3 -5 -1 -10 5 -10 7 0 10 -7 6 -15 -3 -8 -1 -15 5 -15 6 0 9
-7 5 -15 -3 -8 -1 -15 5 -15 6 0 8 -9 4 -20 -4 -12 -2 -20 5 -20 7 0 9 -8 5
-20 -4 -12 -2 -20 5 -20 8 0 9 -10 5 -30 -4 -16 -3 -30 2 -30 5 0 9 -47 9
-105 1 -58 -3 -105 -8 -105 -5 0 -7 -13 -3 -30 4 -19 3 -30 -4 -30 -7 0 -9
-10 -5 -26 5 -20 4 -25 -6 -19 -9 5 -10 2 -5 -14 4 -12 2 -21 -4 -21 -6 0 -8
-7 -5 -15 4 -8 1 -15 -5 -15 -6 0 -8 -7 -5 -15 4 -8 1 -15 -6 -15 -6 0 -8 -4
-5 -10 3 -5 1 -10 -5 -10 -6 0 -8 -4 -5 -10 8 -13 -22 -71 -49 -93 -11 -10
-14 -16 -6 -12 8 4 4 -3 -10 -15 -14 -12 -18 -18 -10 -14 13 7 13 6 0 -12 -21
-27 -167 -172 -155 -154 6 9 -3 2 -18 -15 -16 -16 -26 -23 -22 -15 4 8 -3 4
-15 -10 -12 -14 -19 -18 -15 -10 4 8 -2 4 -13 -9 -12 -15 -24 -21 -32 -16 -9
5 -11 4 -6 -3 6 -11 -6 -16 -26 -13 -5 0 -8 -4 -8 -10 0 -5 -4 -7 -10 -4 -5 3
-10 1 -10 -5 0 -7 -7 -9 -16 -6 -10 4 -13 2 -8 -6 5 -8 2 -9 -9 -5 -10 4 -17
2 -17 -4 0 -6 -7 -9 -15 -5 -8 3 -15 1 -15 -4 0 -5 -7 -7 -15 -4 -8 4 -15 1
-15 -6 0 -7 -7 -10 -15 -6 -8 3 -15 1 -15 -5 0 -7 -10 -9 -25 -5 -15 4 -25 2
-25 -5 0 -7 -11 -8 -29 -4 -17 3 -32 2 -36 -4 -3 -6 -42 -11 -90 -11 -48 0
-87 5 -90 11 -4 6 -19 7 -36 4 -18 -4 -29 -3 -29 4 0 7 -10 9 -25 5 -15 -4
-25 -2 -25 5 0 6 -7 8 -15 5 -8 -4 -15 -1 -15 5 0 6 -7 8 -15 5 -8 -4 -15 -1
-15 5 0 6 -7 8 -15 5 -8 -4 -15 -1 -15 6 0 6 -4 8 -10 5 -5 -3 -10 -1 -10 5 0
6 -4 8 -10 5 -13 -8 -70 22 -70 37 0 6 -3 8 -7 5 -3 -4 -12 1 -20 11 -10 11
-12 12 -8 2 4 -8 -3 -4 -15 10 -12 14 -19 18 -15 10 4 -8 -3 -4 -16 10 -13 14
-20 19 -15 10 6 -8 -19 15 -55 51 -35 36 -46 45 -24 20 35 -40 36 -42 7 -16
-42 37 -103 112 -82 101 8 -4 2 4 -15 19 -16 14 -23 23 -15 19 8 -4 3 4 -12
19 -29 27 -37 43 -15 32 6 -4 4 0 -5 8 -10 8 -15 17 -11 20 3 4 1 7 -6 7 -7 0
-9 5 -6 10 3 6 1 10 -5 10 -6 0 -8 5 -5 10 3 6 1 10 -5 10 -7 0 -9 7 -6 16 4
10 2 13 -6 8 -8 -5 -9 -2 -5 9 4 10 2 17 -4 17 -6 0 -9 7 -5 15 3 8 1 15 -5
15 -6 0 -8 9 -4 21 5 16 4 19 -5 14 -10 -6 -11 -1 -6 19 4 16 2 26 -5 26 -7 0
-9 9 -5 25 4 14 3 25 -1 25 -5 0 -8 52 -8 115 0 63 4 115 8 115 5 0 6 14 2 30
-4 20 -3 30 5 30 7 0 9 8 5 20 -4 12 -2 20 5 20 7 0 9 8 5 20 -4 11 -2 20 4
20 6 0 7 7 4 17 -5 12 -3 14 7 8 10 -6 12 -4 7 8 -3 10 -2 17 3 17 5 0 7 7 4
15 -4 8 -1 15 6 15 6 0 8 5 5 10 -3 6 -1 10 5 10 6 0 8 5 5 10 -3 6 -1 10 5
10 6 0 8 5 5 10 -3 6 -1 10 5 10 6 0 8 4 5 10 -3 5 7 22 22 37 15 14 21 23 13
19 -8 -4 -4 2 10 14 14 12 18 19 10 15 -8 -4 -1 6 15 22 17 15 25 24 18 19
-28 -18 -10 2 54 64 37 36 61 56 53 44 -8 -11 -1 -6 15 11 17 17 39 38 49 46
17 12 19 12 12 -1 -4 -9 -2 -8 7 2 8 10 17 15 20 11 4 -3 7 -1 7 5 0 15 77 55
90 47 6 -3 10 -1 10 5 0 6 5 8 10 5 6 -3 10 -1 10 5 0 7 7 10 15 6 8 -3 15 -1
15 5 0 6 7 9 15 5 8 -3 15 -1 15 5 0 6 9 8 20 4 12 -4 20 -2 20 5 0 6 10 8 25
4 16 -4 25 -2 25 5 0 8 13 9 40 5 27 -4 40 -3 40 5 0 15 97 15 106 0z m1134
-1832 c0 -2 -10 -12 -22 -23 l-23 -19 19 23 c18 21 26 27 26 19z"/>
<path d="M6700 7456 c0 -2 8 -10 18 -17 15 -13 16 -12 3 4 -13 16 -21 21 -21
13z"/>
<path d="M7830 8136 c0 -2 8 -10 18 -17 15 -13 16 -12 3 4 -13 16 -21 21 -21
13z"/>
<path d="M3 6930 c0 -30 2 -43 4 -27 2 15 2 39 0 55 -2 15 -4 2 -4 -28z"/>
<path d="M3 6750 c0 -36 2 -50 4 -32 2 17 2 47 0 65 -2 17 -4 3 -4 -33z"/>
<path d="M0 3310 l0 -3310 4884 0 c3208 0 4887 3 4891 10 3 6 -1 7 -9 4 -9 -3
-16 -1 -16 6 0 6 -5 8 -10 5 -5 -3 -10 -1 -10 5 0 6 -5 8 -10 5 -6 -3 -10 -2
-10 4 0 6 -7 7 -17 4 -11 -4 -14 -3 -9 5 5 8 2 10 -8 6 -9 -3 -16 -1 -16 6 0
6 -4 8 -10 5 -5 -3 -10 -1 -10 5 0 6 -4 8 -10 5 -5 -3 -10 -1 -10 5 0 6 -4 9
-9 6 -13 -8 -42 4 -35 15 3 5 -2 6 -10 3 -9 -3 -16 -1 -16 6 0 6 -4 8 -10 5
-5 -3 -10 -1 -10 5 0 6 -4 8 -10 5 -5 -3 -10 -1 -10 5 0 6 -4 9 -9 6 -13 -8
-42 4 -35 15 3 5 -2 6 -10 3 -9 -3 -16 -1 -16 6 0 6 -5 8 -10 5 -6 -3 -10 -1
-10 5 0 6 -4 8 -10 5 -5 -3 -10 -1 -10 5 0 6 -4 9 -9 6 -13 -8 -42 4 -35 15 3
5 -2 6 -10 3 -9 -3 -16 -1 -16 6 0 6 -4 8 -10 5 -5 -3 -10 -1 -10 5 0 6 -4 8
-10 5 -5 -3 -10 -1 -10 5 0 6 -5 8 -10 5 -5 -3 -10 -1 -10 5 0 6 -4 9 -9 6
-13 -8 -42 4 -35 15 3 5 -2 6 -10 3 -9 -3 -16 -1 -16 6 0 6 -4 8 -10 5 -5 -3
-10 -1 -10 5 0 6 -4 8 -10 5 -5 -3 -10 -1 -10 5 0 6 -4 8 -10 5 -5 -3 -10 -1
-10 5 0 6 -4 8 -10 5 -5 -3 -10 -2 -10 4 0 6 -7 7 -17 4 -11 -4 -14 -3 -9 5 5
8 2 10 -8 6 -9 -3 -16 -1 -16 6 0 6 -4 8 -10 5 -5 -3 -10 -1 -10 5 0 6 -4 8
-10 5 -5 -3 -10 -1 -10 5 0 6 -4 8 -10 5 -5 -3 -10 -1 -10 5 0 6 -5 8 -10 5
-5 -3 -10 -1 -10 5 0 6 -4 9 -9 6 -13 -8 -42 4 -35 15 3 5 -2 6 -10 3 -9 -3
-16 -1 -16 6 0 6 -4 8 -10 5 -5 -3 -10 -1 -10 5 0 6 -4 8 -10 5 -5 -3 -10 -1
-10 5 0 6 -5 8 -10 5 -6 -3 -10 -1 -10 5 0 6 -4 9 -9 6 -13 -8 -42 4 -35 15 3
5 -2 6 -10 3 -9 -3 -16 -1 -16 6 0 6 -4 8 -10 5 -5 -3 -10 -1 -10 5 0 6 -4 8
-10 5 -5 -3 -10 -1 -10 5 0 6 -4 8 -10 5 -5 -3 -10 -1 -10 5 0 6 -4 8 -10 5
-5 -3 -10 -1 -10 5 0 6 -4 9 -9 6 -13 -8 -42 4 -35 15 3 5 -2 6 -10 3 -9 -3
-16 -1 -16 6 0 6 -5 8 -10 5 -5 -3 -10 -1 -10 5 0 6 -5 8 -10 5 -5 -3 -10 -1
-10 5 0 6 -5 8 -10 5 -6 -3 -10 -1 -10 5 0 6 -4 8 -10 5 -5 -3 -10 -1 -10 5 0
6 -4 9 -9 6 -13 -8 -42 4 -35 15 3 5 -2 6 -10 3 -9 -3 -16 -1 -16 6 0 6 -5 8
-10 5 -6 -3 -10 -1 -10 5 0 6 -4 8 -10 5 -5 -3 -10 -1 -10 5 0 6 -4 8 -10 5
-5 -3 -10 -1 -10 5 0 6 -4 8 -10 5 -5 -3 -10 -1 -10 5 0 6 -4 9 -9 6 -13 -8
-42 4 -35 15 3 5 -2 6 -10 3 -9 -3 -16 -1 -16 6 0 6 -5 8 -10 5 -5 -3 -10 -1
-10 5 0 6 -5 8 -10 5 -5 -3 -10 -1 -10 5 0 6 -4 8 -10 5 -5 -3 -10 -1 -10 5 0
6 -4 8 -10 5 -5 -3 -10 -1 -10 5 0 6 -4 9 -9 6 -13 -8 -42 4 -35 15 3 5 -2 6
-10 3 -9 -3 -16 -1 -16 6 0 6 -4 8 -10 5 -5 -3 -10 -1 -10 5 0 6 -4 8 -10 5
-5 -3 -10 -1 -10 5 0 6 -4 8 -10 5 -5 -3 -10 -1 -10 5 0 6 -4 8 -10 5 -5 -3
-10 -1 -10 5 0 6 -4 9 -9 6 -13 -8 -42 4 -35 15 3 5 -2 6 -10 3 -9 -3 -16 -1
-16 6 0 6 -4 8 -10 5 -5 -3 -10 -1 -10 5 0 6 -5 8 -10 5 -6 -3 -10 -1 -10 5 0
6 -4 8 -10 5 -5 -3 -10 -1 -10 5 0 6 -4 8 -10 5 -5 -3 -10 -1 -10 5 0 6 -5 8
-10 5 -6 -3 -10 -1 -10 5 0 6 -4 9 -9 6 -13 -8 -42 4 -35 15 3 5 -2 6 -10 3
-9 -3 -16 -1 -16 6 0 6 -5 8 -10 5 -6 -3 -10 -1 -10 5 0 6 -4 8 -10 5 -5 -3
-10 -1 -10 5 0 6 -5 8 -10 5 -6 -3 -10 -1 -10 5 0 6 -5 8 -10 5 -6 -3 -10 -1
-10 5 0 6 -4 9 -9 6 -13 -8 -42 4 -35 15 3 5 -2 6 -10 3 -9 -3 -16 -1 -16 6 0
6 -4 8 -10 5 -5 -3 -10 -1 -10 5 0 6 -4 8 -10 5 -5 -3 -10 -1 -10 5 0 6 -4 8
-10 5 -5 -3 -10 -1 -10 5 0 6 -4 9 -9 6 -13 -8 -42 4 -35 15 3 5 -3 6 -12 2
-12 -4 -15 -3 -10 5 5 8 2 10 -8 6 -9 -3 -16 -1 -16 6 0 6 -4 8 -10 5 -5 -3
-10 -1 -10 5 0 6 -4 8 -10 5 -5 -3 -10 -1 -10 5 0 6 -4 8 -10 5 -5 -3 -10 -1
-10 5 0 6 -5 8 -10 5 -6 -3 -10 -1 -10 5 0 6 -4 9 -9 6 -13 -8 -42 4 -35 15 3
5 -2 6 -10 3 -9 -3 -16 -1 -16 6 0 6 -4 8 -10 5 -5 -3 -10 -1 -10 5 0 6 -4 8
-10 5 -5 -3 -10 -1 -10 5 0 6 -4 8 -10 5 -5 -3 -10 -1 -10 5 0 6 -5 8 -10 5
-6 -3 -10 -1 -10 5 0 6 -4 9 -9 6 -13 -8 -42 4 -35 15 3 5 -2 6 -10 3 -9 -3
-16 -1 -16 6 0 6 -4 8 -10 5 -6 -3 -10 -1 -10 5 0 6 -4 8 -10 5 -5 -3 -10 -1
-10 5 0 6 -4 8 -10 5 -6 -3 -10 -1 -10 5 0 6 -4 8 -10 5 -5 -3 -10 -1 -10 5 0
6 -4 9 -9 6 -12 -8 -42 4 -36 14 3 5 -3 6 -13 3 -14 -3 -17 -12 -14 -34 2 -16
0 -29 -4 -29 -5 0 -7 -205 -5 -465 l3 -465 -2943 0 -2944 0 0 2332 c0 1861 -3
2332 -12 2330 -7 -1 -13 3 -13 9 0 5 -4 8 -10 4 -5 -3 -18 3 -29 14 -11 11
-22 17 -25 13 -3 -3 -6 0 -6 7 0 7 -4 9 -10 6 -5 -3 -10 -1 -10 5 0 6 -4 9
-10 5 -5 -3 -18 3 -29 14 -11 11 -22 17 -25 13 -3 -3 -6 0 -6 7 0 7 -4 9 -10
6 -5 -3 -22 7 -37 22 -14 15 -23 21 -19 13 4 -8 0 -6 -8 4 -9 11 -16 16 -16
10 0 -5 -7 0 -15 10 -8 11 -15 16 -15 10 0 -5 -10 2 -21 16 -11 14 -18 18 -14
10 4 -8 -3 -4 -15 10 -12 14 -19 18 -15 10 4 -8 -6 -1 -22 15 -15 17 -24 24
-19 15 4 -8 -9 3 -29 25 -21 22 -32 31 -24 21 15 -21 -272 265 -306 304 -13
15 -14 21 -5 16 8 -5 2 4 -15 19 -16 14 -23 23 -15 20 8 -4 2 5 -15 20 -16 14
-23 23 -15 20 8 -4 4 3 -10 15 -14 12 -18 19 -10 15 8 -4 4 3 -10 15 -14 12
-18 19 -10 15 8 -4 5 2 -7 12 -12 10 -23 24 -25 32 -2 8 -11 23 -21 33 -10 10
-15 23 -12 28 4 6 1 10 -5 10 -6 0 -8 5 -5 10 3 6 2 10 -4 10 -13 0 -42 55
-34 64 4 3 1 6 -6 6 -7 0 -9 5 -6 10 3 6 1 10 -5 10 -6 0 -8 5 -5 10 3 6 1 10
-5 10 -7 0 -9 7 -6 16 3 8 2 13 -3 10 -11 -7 -23 22 -15 35 3 5 0 9 -6 9 -6 0
-8 5 -5 10 3 6 1 10 -5 10 -7 0 -9 7 -6 16 4 10 2 13 -6 8 -8 -5 -9 -2 -5 9 4
10 2 17 -4 17 -6 0 -8 7 -5 16 4 10 2 13 -6 8 -8 -5 -9 -2 -5 9 4 10 2 17 -4
17 -6 0 -9 7 -5 15 3 8 1 15 -5 15 -6 0 -9 7 -5 15 3 8 1 15 -5 15 -6 0 -9 7
-5 15 3 8 1 15 -5 15 -6 0 -9 7 -5 15 3 8 1 15 -5 15 -6 0 -8 9 -4 20 4 12 2
20 -5 20 -7 0 -9 8 -5 21 5 16 4 19 -6 14 -9 -6 -11 -2 -7 13 4 12 2 22 -4 22
-6 0 -7 11 -4 25 4 15 2 25 -4 25 -6 0 -8 10 -4 25 4 16 2 25 -6 25 -8 0 -10
9 -6 25 4 16 2 25 -5 25 -7 0 -9 11 -6 30 4 16 2 32 -4 36 -6 3 -8 22 -4 45 4
25 3 39 -4 39 -8 0 -11 -932 -11 -3310z m620 2015 c47 -47 82 -85 80 -85 -3 0
-43 38 -90 85 -47 47 -82 85 -80 85 3 0 43 -38 90 -85z"/>
<path d="M4149 6223 c-1 -5 -1 -11 0 -15 0 -5 -4 -8 -10 -8 -5 0 -7 -4 -4 -10
3 -5 2 -10 -4 -10 -6 0 -7 -7 -4 -17 5 -12 3 -14 -7 -8 -10 6 -12 4 -7 -8 3
-10 2 -17 -3 -17 -5 0 -6 -7 -3 -17 5 -12 3 -14 -7 -8 -10 6 -12 4 -7 -8 3
-10 2 -17 -3 -17 -5 0 -6 -7 -3 -17 5 -12 3 -14 -7 -8 -10 6 -12 4 -7 -8 3
-10 2 -17 -3 -17 -5 0 -6 -7 -3 -17 5 -12 3 -14 -7 -8 -10 6 -12 4 -7 -8 3
-10 2 -17 -4 -17 -6 0 -7 -4 -4 -10 3 -5 2 -10 -4 -10 -6 0 -7 -7 -4 -17 4
-11 3 -14 -5 -9 -8 5 -10 2 -6 -8 3 -9 1 -16 -6 -16 -6 0 -8 -4 -5 -10 3 -5 1
-10 -5 -10 -6 0 -8 -4 -5 -10 3 -5 1 -10 -5 -10 -6 0 -8 -4 -5 -10 3 -5 1 -10
-6 -10 -7 0 -9 -3 -6 -7 4 -3 -1 -12 -11 -20 -9 -8 -11 -11 -4 -8 11 6 12 3 3
-14 -7 -11 -16 -21 -22 -21 -6 0 -7 -4 -4 -10 3 -5 1 -10 -5 -10 -6 0 -8 -4
-5 -10 3 -5 -7 -22 -22 -37 -15 -14 -21 -23 -13 -19 8 4 4 -2 -10 -14 -14 -12
-18 -19 -10 -15 8 4 4 -3 -10 -15 -14 -12 -18 -19 -10 -15 8 4 4 -3 -10 -15
-14 -12 -18 -19 -10 -15 8 3 2 -6 -15 -20 -16 -15 -24 -24 -16 -20 9 5 8 -1
-4 -19 -17 -25 -34 -38 -19 -14 4 7 3 8 -5 4 -6 -4 -9 -11 -7 -15 3 -4 -5 -18
-17 -32 -12 -14 -18 -18 -12 -9 8 13 7 13 -5 2 -8 -7 -15 -16 -16 -20 0 -4
-58 -65 -130 -137 -71 -71 -122 -121 -114 -110 8 11 -6 -2 -32 -29 -26 -26
-51 -45 -57 -42 -5 4 -13 1 -17 -5 -4 -8 -3 -9 4 -5 24 15 11 -2 -14 -19 -18
-12 -24 -13 -19 -4 4 8 -5 1 -20 -16 -14 -16 -23 -23 -20 -15 4 8 -3 4 -15
-10 -12 -14 -19 -18 -15 -10 4 8 -2 5 -12 -7 -10 -12 -25 -23 -33 -25 -8 -2
-21 -10 -28 -18 -12 -13 -13 -13 -7 0 4 8 -3 4 -15 -10 -12 -14 -19 -18 -15
-10 4 8 -1 6 -9 -4 -9 -11 -16 -16 -16 -11 0 5 -7 0 -16 -11 -8 -10 -13 -12
-9 -4 4 10 2 9 -8 -2 -8 -10 -18 -14 -22 -10 -5 4 -5 1 -1 -5 6 -10 231 -13
1072 -13 1033 0 1063 1 1047 18 -10 11 -21 17 -25 15 -5 -2 -8 1 -8 7 0 6 -4
9 -10 5 -5 -3 -18 2 -28 12 -10 10 -25 19 -33 21 -8 2 -22 13 -32 25 -10 12
-16 15 -12 7 4 -8 -3 -4 -15 10 -12 14 -19 18 -15 10 4 -8 -3 -4 -15 10 -12
14 -19 18 -15 10 4 -8 -3 -4 -15 10 -12 14 -19 18 -15 10 3 -8 -6 -1 -20 15
-15 17 -24 23 -20 15 4 -8 -6 -1 -22 15 -15 17 -24 24 -19 15 4 -8 -11 5 -35
30 -24 25 -39 38 -34 30 6 -9 -17 12 -50 47 -33 35 -91 93 -130 129 -38 37
-61 60 -50 53 11 -7 0 7 -25 30 -25 24 -36 38 -25 31 11 -7 4 2 -16 21 -20 19
-42 43 -50 53 -12 17 -12 19 1 11 8 -5 0 6 -18 23 -20 19 -31 36 -26 43 4 7 3
9 -3 6 -5 -3 -17 7 -27 24 -9 16 -14 29 -10 29 4 0 -1 7 -12 16 -10 8 -12 13
-4 9 8 -4 6 1 -4 9 -11 9 -17 16 -13 16 4 0 -2 9 -13 20 -12 12 -18 25 -15 30
4 6 1 10 -5 10 -6 0 -8 5 -5 10 3 6 1 10 -5 10 -6 0 -8 5 -5 10 3 6 1 10 -5
10 -6 0 -8 5 -5 10 3 6 1 10 -5 10 -6 0 -8 5 -5 10 3 6 1 10 -5 10 -6 0 -8 5
-5 10 3 6 1 10 -5 10 -6 0 -8 5 -5 10 3 6 1 10 -5 10 -7 0 -9 7 -6 16 4 10 2
13 -6 8 -8 -5 -9 -2 -5 9 3 10 2 17 -4 17 -6 0 -7 5 -4 10 3 6 1 10 -5 10 -7
0 -10 7 -6 15 3 8 1 15 -4 15 -5 0 -6 7 -3 17 5 12 3 14 -7 8 -10 -6 -12 -4
-7 8 4 10 2 17 -4 17 -6 0 -9 7 -5 15 3 8 1 15 -5 15 -6 0 -9 7 -5 15 3 8 1
15 -5 15 -6 0 -9 6 -7 12 3 7 -1 19 -9 26 -7 8 -11 18 -8 23 4 5 4 9 1 9 -3 0
-7 -3 -7 -7z m-529 -888 c-41 -41 -77 -75 -79 -75 -3 0 28 34 69 75 41 41 77
75 79 75 3 0 -28 -34 -69 -75z m1085 -15 c27 -27 47 -50 44 -50 -3 0 -27 23
-54 50 -27 28 -47 50 -44 50 3 0 27 -22 54 -50z"/>
<path d="M480 5476 c0 -2 8 -10 18 -17 15 -13 16 -12 3 4 -13 16 -21 21 -21
13z"/>
<path d="M9795 3525 c0 -517 1 -727 2 -467 2 261 2 684 0 940 -1 257 -2 44 -2
-473z"/>
<path d="M9794 325 c0 -176 2 -247 3 -157 2 90 2 234 0 320 -1 86 -3 13 -3
-163z"/>
</g>
</svg>
